<svg width="500" height="444" viewBox="0 0 500 444" xmlns="http://www.w3.org/2000/svg"><title>circle4427</title><path d="M147.648 0c-8.317-.038-15.667 1.68-21.753 5.195C102.28 18.84 91.36 63.36 101.45 120.967c.99 5.65 2.204 11.43 3.626 17.315-7.67 2.247-15.003 4.67-21.945 7.256C31.026 164.958 0 194.213 0 220.692c0 27.288 33.065 59.014 87.96 79.072 5.855 2.14 11.978 4.12 18.327 5.956-1.76 7.277-3.244 14.386-4.436 21.286-9.593 55.53-.327 98.433 22.774 111.78 24.074 13.91 68.394-.278 114.164-39.413 3.863-3.303 7.732-6.807 11.598-10.48 3.782 3.585 7.566 7.01 11.344 10.24 45.77 39.136 90.09 53.324 114.165 39.414 23.1-13.348 32.367-56.252 22.774-111.78-1.236-7.145-2.78-14.51-4.62-22.055 5.073-1.505 10.005-3.096 14.76-4.78 56.752-20.1 91.19-51.42 91.19-79.24 0-26.696-32.493-56.178-85.342-75.627-6.142-2.26-12.575-4.388-19.25-6.384 1.438-5.94 2.662-11.77 3.66-17.472 10.09-57.607-.83-102.13-24.444-115.773-22.914-13.24-63.742-.977-106.6 34.473-5.838 4.83-11.73 10.1-17.64 15.767-5.993-5.757-11.97-11.11-17.89-16.007C201.02 13.635 170.642.108 147.65 0zm2.63 20.875c19.054-.237 46.133 13.424 74.993 39.6 3.47 3.15 6.974 6.49 10.498 9.995-14.252 15.183-28.428 32.51-42.017 51.475-24.555 2.32-47.892 6.12-69.19 11.186-.708-2.78-1.37-5.53-1.97-8.24-11.363-51.222-4.848-89.794 13.71-100.516 3.938-2.276 8.644-3.432 13.98-3.5zm199.962.24c5.335.066 10.04 1.222 13.98 3.498 18.556 10.723 25.072 49.294 13.71 100.517-.606 2.728-1.272 5.496-1.987 8.294-21.202-5.15-44.416-9.025-68.942-11.397-13.585-18.99-27.762-36.337-42.017-51.547 3.445-3.42 6.87-6.685 10.265-9.764 28.86-26.178 55.94-39.838 74.992-39.6zM250.367 85.84c9.337 10.368 18.723 21.813 27.973 34.14-9.32-.437-18.777-.665-28.34-.665-9.297 0-18.513.218-27.615.632 9.255-12.317 18.644-23.752 27.982-34.106zm-.832 55.755c15.48 0 30.66.56 45.363 1.624 8.335 12.308 16.456 25.258 24.21 38.7 7.97 13.813 15.27 27.646 21.85 41.304-6.445 12.915-13.474 25.968-20.99 38.995-7.564 13.112-15.445 25.796-23.525 37.878-15.237 1.07-30.952 1.615-46.908 1.615-15.34 0-30.45-.448-45.127-1.358-8.197-12.23-16.188-25.083-23.857-38.376-7.468-12.948-14.458-25.92-20.87-38.76 6.55-13.578 13.81-27.33 21.73-41.06 7.832-13.576 16.037-26.65 24.46-39.07 14.212-.98 28.828-1.495 43.665-1.495zm-71.945 4.12c-5.378 8.34-10.622 16.918-15.693 25.708-5.038 8.733-9.8 17.49-14.282 26.23-6.733-15.185-12.507-30.01-17.125-44.193 14.678-3.186 30.492-5.794 47.1-7.745zm145.656.25c16.496 2.015 32.163 4.694 46.71 7.953-4.58 14.036-10.29 28.7-16.94 43.718-4.515-8.814-9.314-17.646-14.395-26.453-4.97-8.617-10.107-17.034-15.374-25.22zm-212.648 12.362c6.302 20.524 14.823 42.057 25.104 63.944-9.964 21.91-18.068 43.456-24.16 63.96-3.28-.904-6.494-1.842-9.617-2.826-50.007-15.763-80.127-40.696-80.127-62.14 0-20.81 28.262-43.8 75.727-59.06 4.203-1.352 8.57-2.643 13.073-3.877zm279.212.598c3.316.937 6.563 1.904 9.72 2.906 48.142 15.286 77.742 38.454 77.742 59.433 0 21.863-31.37 46.476-83.07 62.272-1.798.55-3.632 1.084-5.482 1.61-6.04-20.175-14.016-41.344-23.793-62.87 10.172-21.678 18.615-43.007 24.883-63.35zm-140.003 17.62c-11.813 0-23.142 4.698-31.496 13.057-8.352 8.36-13.044 19.698-13.044 31.52 0 11.823 4.692 23.16 13.045 31.52 8.355 8.36 19.684 13.057 31.497 13.057 11.813 0 23.142-4.698 31.496-13.057 8.353-8.36 13.045-19.698 13.045-31.52 0-11.823-4.692-23.16-13.045-31.52-8.354-8.36-19.683-13.057-31.496-13.057zm-101.343 71.382c4.396 8.375 9.02 16.764 13.845 25.13 4.93 8.546 10.01 16.906 15.21 25.052-15.898-1.69-31.063-3.985-45.19-6.907 4.4-13.883 9.8-28.397 16.134-43.276zm203.702.023c6.185 14.553 11.482 28.756 15.816 42.357-13.898 3.016-28.83 5.45-44.496 7.28 5.03-7.904 9.947-16.01 14.724-24.29 4.867-8.438 9.526-16.9 13.956-25.347zm21.553 62.13c1.056 4.06 2.017 8.05 2.876 11.958 10.844 49.368 5.595 86.606-12.56 97.096-18.918 10.93-55.903-3.95-95.42-40.86-1.314-1.225-2.628-2.486-3.945-3.763 14.86-15.816 29.537-34.084 43.566-54.09 23.18-2.154 45.255-5.615 65.483-10.34zm-247.077.84c20.404 4.58 42.655 7.828 66.022 9.804 13.988 19.898 28.614 38.065 43.42 53.796-1.396 1.357-2.79 2.695-4.18 3.994-39.52 36.908-76.504 51.792-95.423 40.86-18.155-10.49-23.404-47.73-12.56-97.096.817-3.716 1.727-7.505 2.72-11.357zm154.194 11.414c-10.038 13.62-20.262 26.186-30.468 37.393-10.196-11.174-20.408-23.706-30.437-37.29 9.9.415 19.937.625 30.067.625 10.39 0 20.686-.247 30.837-.728z" fill="#00D8FF" fill-rule="evenodd"/></svg>